<?xml version="1.0" standalone="no"?>
<!DOCTYPE svg PUBLIC "-//W3C//DTD SVG 20010904//EN"
 "http://www.w3.org/TR/2001/REC-SVG-20010904/DTD/svg10.dtd">
<svg version="1.0" xmlns="http://www.w3.org/2000/svg"
 width="1516.000000pt" height="947.000000pt" viewBox="0 0 1516.000000 947.000000"
 preserveAspectRatio="xMidYMid meet">
<metadata>
Created by potrace 1.14, written by Peter Selinger 2001-2017
</metadata>
<g transform="translate(0.000000,947.000000) scale(0.100000,-0.100000)"
fill="#000000" stroke="none">
<path d="M5130 9460 c0 -44 142 -190 221 -227 69 -33 84 -57 94 -153 4 -36 13
-96 21 -135 7 -38 18 -108 24 -155 6 -47 15 -105 20 -130 5 -25 20 -115 34
-200 14 -85 28 -165 31 -177 8 -36 -13 -67 -61 -88 -24 -11 -66 -40 -93 -65
-27 -25 -77 -71 -111 -102 -34 -32 -65 -58 -68 -58 -8 0 -42 -37 -42 -46 0 -2
-8 -13 -18 -24 -35 -38 -41 -13 -39 175 2 209 -1 267 -20 315 -7 19 -14 44
-16 55 -6 32 -20 59 -34 68 -7 4 -22 26 -33 48 -22 41 -131 156 -216 226 -48
39 -168 108 -178 101 -2 -2 -12 4 -22 13 -44 36 -217 91 -374 118 -148 26
-306 30 -500 11 -157 -14 -268 -16 -350 -5 -32 5 -42 3 -35 -4 21 -21 205 -24
403 -6 205 19 279 16 497 -21 265 -44 553 -190 683 -347 45 -54 100 -134 126
-185 48 -93 68 -347 42 -531 -9 -62 -19 -118 -23 -125 -3 -6 -36 -49 -73 -96
-37 -47 -86 -113 -109 -147 -23 -35 -45 -63 -49 -63 -4 0 -19 37 -34 83 -33
105 -96 237 -145 304 -21 29 -56 78 -78 109 -22 32 -63 83 -91 113 -28 31 -76
86 -107 122 -57 67 -199 203 -229 220 -30 16 -30 -9 -1 -33 76 -62 241 -238
359 -383 113 -139 214 -309 265 -449 15 -43 34 -84 40 -92 9 -11 1 -26 -39
-71 -85 -98 -84 -98 -171 -97 -167 1 -362 37 -459 83 -34 17 -65 31 -68 31
-13 0 -201 129 -231 160 -27 26 -33 28 -33 12 0 -30 112 -122 209 -172 48 -24
45 -40 -7 -40 -45 0 -218 -76 -258 -113 -26 -24 -44 -34 -44 -23 0 1 13 57 29
122 17 65 28 120 27 122 -7 6 -45 -106 -61 -176 -8 -40 -27 -102 -41 -138 -15
-36 -25 -67 -22 -69 2 -2 22 20 44 50 39 55 149 145 177 145 8 0 39 11 69 25
29 14 61 25 70 25 10 0 33 7 51 16 33 16 37 16 91 -10 62 -29 201 -61 311 -71
112 -10 112 -12 22 -59 -167 -88 -201 -111 -294 -200 -113 -107 -207 -236
-183 -251 5 -3 30 26 55 65 73 109 195 216 354 309 75 44 148 85 164 92 15 7
27 16 27 21 0 4 14 8 31 8 17 0 29 -3 27 -7 -2 -5 -23 -48 -47 -97 -54 -112
-99 -218 -117 -276 -7 -25 -22 -72 -33 -105 -34 -106 -69 -229 -75 -267 -13
-73 -183 -161 -411 -214 -115 -26 -124 -27 -230 -16 -60 7 -135 17 -165 23
-43 9 -85 8 -195 -4 -77 -8 -143 -13 -148 -10 -4 3 -3 11 4 19 6 8 7 14 2 14
-14 0 -33 -22 -33 -39 0 -12 17 -13 108 -7 211 15 272 16 272 6 0 -6 10 -10
23 -10 13 0 17 -3 11 -8 -6 -4 -19 -23 -29 -42 -10 -19 -32 -55 -50 -80 -61
-85 -170 -269 -225 -380 -36 -74 -108 -239 -188 -435 -52 -127 -107 -301 -135
-430 -55 -248 -67 -370 -67 -665 0 -243 18 -408 66 -603 4 -17 2 -27 -5 -27
-16 0 -14 -73 3 -134 8 -28 20 -78 27 -111 14 -74 27 -121 45 -160 7 -16 34
-93 59 -170 105 -313 322 -679 539 -905 18 -19 64 -71 102 -115 87 -100 214
-226 224 -220 4 3 8 -5 8 -18 0 -12 14 -57 31 -100 25 -63 31 -93 31 -154 0
-42 5 -94 12 -116 12 -41 71 -107 95 -107 7 0 13 -3 14 -7 1 -5 3 -30 5 -58 8
-87 45 -113 118 -85 26 9 26 9 26 -39 0 -64 39 -111 93 -111 20 0 38 4 42 9 3
5 17 -2 31 -16 23 -23 31 -25 89 -21 49 3 83 13 152 47 48 24 102 54 118 66
43 32 93 56 97 47 6 -16 76 -52 165 -86 50 -19 111 -44 136 -55 25 -12 52 -21
59 -21 8 0 18 -4 23 -9 12 -12 215 -93 310 -125 252 -83 362 -116 490 -145
230 -51 255 -56 400 -76 22 -3 67 -10 100 -15 33 -5 116 -14 185 -21 69 -6
184 -20 255 -30 182 -27 364 -33 615 -20 268 15 344 23 539 56 207 35 674 146
752 179 19 8 86 28 149 45 168 44 490 152 600 200 52 23 116 49 142 57 26 8
51 22 56 31 8 13 17 11 66 -21 31 -20 59 -36 62 -36 3 0 38 -16 77 -35 77 -38
145 -46 167 -20 11 13 17 11 47 -15 18 -17 41 -30 51 -30 99 1 114 90 37 222
-19 32 -35 61 -35 64 0 3 -9 17 -20 31 -24 31 -25 43 -5 43 8 0 15 -5 15 -11
0 -5 3 -8 8 -5 4 2 25 -30 47 -71 42 -80 89 -123 135 -123 34 0 47 10 63 49
12 28 12 43 1 95 -18 82 -17 96 4 96 49 1 82 73 82 181 0 31 8 45 43 81 23 24
63 59 87 78 67 53 336 327 387 395 13 17 37 48 53 70 49 64 123 177 146 220
35 67 93 165 115 196 11 16 19 35 16 42 -2 6 4 24 15 39 11 16 17 32 13 37 -3
6 1 13 9 18 19 11 86 158 87 191 2 30 17 66 54 127 13 22 24 48 25 58 0 9 4
17 9 17 4 0 6 12 3 27 l-5 27 -15 -34 c-31 -71 -81 -165 -90 -168 -5 -1 -12
64 -15 150 -4 84 -12 189 -17 233 -21 167 -39 293 -54 370 -8 44 -22 132 -30
195 -9 63 -22 151 -30 195 -9 44 -11 82 -7 85 7 4 454 5 498 1 6 -1 14 -11 16
-23 2 -13 5 -4 6 20 l1 42 -122 2 c-68 2 -187 3 -265 3 -77 0 -143 2 -146 5
-3 3 -12 70 -21 150 -10 80 -21 170 -27 200 -12 69 -26 322 -34 603 l-6 217
230 0 c209 0 231 -2 240 -17 6 -10 11 -13 11 -6 0 6 -4 15 -10 18 -5 3 -10 22
-10 42 0 28 -3 33 -13 25 -8 -7 -89 -11 -231 -11 l-218 0 7 247 c4 136 13 309
19 385 6 76 8 141 4 143 -5 3 -8 32 -8 64 0 32 -5 62 -10 65 -8 5 -8 11 -1 19
19 23 1 24 -50 5 -108 -41 -319 -34 -424 15 -82 38 -241 189 -304 287 -30 46
-71 110 -92 141 -22 31 -39 64 -39 72 0 8 -4 17 -9 20 -5 3 -12 23 -15 43 -4
21 -20 65 -36 98 -16 33 -36 81 -45 106 -8 25 -38 84 -65 132 -28 48 -51 92
-53 98 -1 6 44 12 117 15 113 5 120 4 155 -20 20 -13 56 -36 81 -52 57 -34
168 -124 288 -232 52 -46 96 -81 99 -78 3 2 -14 29 -38 58 -75 91 -199 197
-332 283 -42 28 -77 53 -77 58 0 4 10 7 23 7 36 0 185 45 276 84 45 19 91 36
100 38 21 3 153 -84 207 -137 23 -23 58 -67 79 -98 40 -60 49 -67 58 -42 13
33 -138 198 -238 260 -27 17 -50 35 -52 40 -2 6 23 23 54 38 l58 27 53 -55
c28 -31 52 -53 52 -49 0 24 -27 75 -41 79 -28 9 -30 52 -3 70 13 9 24 23 24
32 0 14 -2 15 -17 1 -35 -30 -190 -107 -333 -167 -184 -76 -322 -105 -497
-106 -139 0 -123 -9 -190 102 l-32 53 33 57 c34 58 171 223 184 223 4 0 23 15
42 33 48 46 190 154 278 211 70 46 81 59 63 70 -11 7 -208 -131 -337 -236
-102 -84 -215 -206 -257 -279 -12 -21 -27 -39 -33 -39 -6 0 -52 49 -103 109
-78 92 -124 131 -138 117 -2 -1 27 -36 64 -77 122 -134 253 -302 253 -326 0
-4 27 -55 60 -113 86 -150 133 -279 175 -480 18 -84 31 -279 18 -265 -18 18
-80 119 -131 212 l-51 91 -6 119 c-7 124 -26 250 -52 346 -18 64 -39 78 -30
20 18 -116 36 -221 41 -243 3 -14 8 -63 11 -110 l5 -85 -31 35 c-17 19 -37 48
-46 64 -12 23 -103 140 -210 270 -9 11 -31 40 -50 65 -37 50 -106 132 -138
165 -11 12 -32 36 -47 53 -30 36 -148 147 -223 208 -44 36 -159 134 -243 206
-27 23 -33 34 -28 56 3 16 13 91 22 168 9 77 21 145 26 152 6 8 3 13 -11 18
-19 6 -21 14 -21 110 0 58 4 107 10 110 6 3 10 35 10 70 0 35 5 67 10 70 6 3
10 35 10 71 0 60 8 88 37 124 14 18 43 184 43 247 0 40 2 44 43 62 47 21 177
150 177 175 0 14 -39 16 -390 16 -214 0 -390 -2 -390 -4 0 -2 6 -19 14 -37 12
-28 12 -40 -1 -83 -18 -60 -64 -153 -108 -216 -18 -25 -48 -76 -67 -115 -66
-129 -108 -208 -119 -222 -16 -18 -36 -16 -70 8 -16 11 -29 18 -29 14 0 -3
-14 2 -30 10 -41 21 -180 61 -260 74 -36 5 -94 15 -130 21 -100 17 -1001 14
-1057 -4 -30 -10 -48 -13 -123 -21 -36 -3 -83 -11 -105 -17 -22 -6 -80 -16
-130 -23 -108 -15 -215 -41 -271 -66 -23 -11 -45 -19 -50 -19 -5 0 -27 -12
-47 -26 -21 -14 -40 -24 -41 -22 -16 21 -46 78 -46 86 0 6 -38 88 -84 184 -97
199 -126 269 -126 297 0 11 -4 22 -9 25 -19 12 -24 86 -7 111 9 13 16 29 16
35 0 7 -139 10 -425 10 -270 0 -425 -4 -425 -10z m2850 -555 c218 -17 339 -42
476 -101 57 -25 84 -42 83 -53 0 -9 -26 -68 -58 -131 -67 -134 -68 -135 -198
-101 -244 65 -374 75 -858 68 -481 -7 -633 -23 -865 -90 -47 -14 -102 -33
-123 -43 -23 -11 -41 -14 -46 -8 -9 10 -49 81 -101 182 l-33 63 23 24 c44 47
215 97 499 147 157 27 204 31 438 35 217 4 264 3 267 -8 3 -8 7 -40 11 -72 9
-77 25 -62 25 23 0 64 2 70 23 75 66 15 130 13 437 -10z m-11 -356 c197 -23
283 -39 285 -54 1 -5 -15 -11 -34 -13 -115 -9 -229 -44 -355 -106 l-130 -65
-200 -11 c-110 -5 -218 -15 -240 -20 -58 -14 -54 -15 -151 54 -118 85 -255
156 -302 157 -60 1 -120 14 -100 21 32 13 174 27 373 38 110 7 202 13 204 16
2 2 110 4 239 4 174 0 281 -5 411 -21z m-1013 -134 c111 -58 132 -72 251 -167
68 -56 101 -72 90 -45 -20 48 -20 47 9 48 16 0 38 3 49 6 11 2 87 7 169 10
136 5 151 4 163 -13 12 -17 14 -17 35 2 38 33 149 98 218 126 106 44 322 87
437 88 62 0 194 -41 326 -104 117 -54 354 -198 455 -275 41 -31 95 -72 122
-91 220 -159 397 -316 506 -450 38 -47 78 -94 90 -105 21 -20 182 -220 258
-319 113 -147 258 -363 276 -411 5 -13 31 -59 58 -102 27 -43 53 -89 57 -103
4 -14 16 -39 26 -56 34 -57 152 -398 193 -559 105 -412 132 -703 91 -984 -6
-36 -15 -55 -15 -30 0 18 -65 265 -89 339 -10 30 -27 80 -36 110 -10 30 -33
86 -52 125 -18 39 -33 85 -33 105 0 20 -6 45 -14 55 -13 18 -14 18 -20 -2 -4
-12 -2 -50 3 -84 26 -174 24 -262 -19 -659 -21 -201 -76 -409 -174 -665 -15
-39 -15 -39 -15 -10 -1 17 6 62 15 100 8 39 14 111 13 160 -1 50 4 106 10 125
14 46 14 93 0 88 -7 -2 -22 -34 -34 -70 -12 -37 -39 -97 -60 -135 -93 -167
-149 -264 -156 -268 -4 -3 0 23 8 57 41 167 51 226 57 321 3 49 8 92 10 96 4
6 9 258 7 314 -1 9 -6 17 -12 17 -7 0 -9 -31 -7 -90 2 -50 0 -90 -4 -90 -5 0
-9 12 -9 28 -1 17 -3 21 -6 9 -3 -10 -16 -29 -29 -42 -20 -20 -29 -23 -45 -15
-29 16 -24 -7 9 -35 25 -22 26 -25 11 -40 -16 -16 -18 -15 -31 11 -25 55 -108
34 -108 -26 0 -17 -4 -30 -9 -30 -5 0 -11 -10 -14 -22 -12 -47 -32 -98 -39
-98 -5 0 -8 -8 -8 -17 0 -16 2 -16 11 -3 9 12 10 11 6 -7 -3 -12 0 -25 7 -28
6 -3 -1 -4 -15 -2 -21 3 -28 -2 -38 -27 -8 -17 -22 -48 -32 -69 -11 -21 -19
-44 -19 -51 0 -8 -13 -28 -30 -46 -16 -18 -30 -36 -30 -42 0 -5 -21 -39 -46
-74 -25 -36 -48 -73 -51 -82 -4 -10 -14 -23 -24 -29 -25 -19 -71 -101 -66
-121 3 -14 6 -12 15 8 l11 25 0 -27 c1 -16 -1 -28 -3 -28 -2 0 -11 -3 -20 -6
-12 -5 -16 0 -16 17 -1 22 -2 22 -14 -6 -7 -16 -22 -38 -34 -48 -12 -11 -18
-26 -15 -37 3 -11 2 -32 -2 -47 l-8 -28 -7 30 -7 30 -8 -32 c-4 -18 -13 -33
-21 -33 -7 0 -16 -5 -20 -11 -5 -9 1 -10 20 -5 15 4 26 2 26 -4 0 -5 -11 -10
-24 -10 -25 0 -87 -38 -94 -57 -2 -7 4 -13 12 -13 22 0 33 -30 15 -41 -8 -5
-23 -9 -34 -9 -19 1 -19 1 -2 14 18 14 17 15 -3 21 -23 7 -65 -23 -158 -114
-29 -28 -57 -51 -63 -51 -13 0 -7 10 51 85 63 81 100 137 145 220 21 39 48 86
60 105 141 227 233 514 282 877 21 162 25 612 5 718 -17 94 -21 105 -37 105
-15 0 -24 -60 -13 -89 18 -51 29 -327 18 -461 -6 -74 -13 -169 -16 -210 -6
-106 -23 -244 -40 -320 -29 -127 -57 -235 -63 -242 -7 -8 -34 127 -46 227 -4
28 -13 85 -21 127 -7 43 -11 90 -8 105 3 18 -3 43 -16 68 -11 21 -20 48 -20
59 0 10 -13 62 -30 115 -16 53 -50 177 -75 276 -46 178 -52 201 -95 343 -13
40 -20 75 -17 79 3 3 24 -2 47 -11 48 -19 83 -21 78 -4 -3 7 -36 23 -75 36
-62 20 -73 28 -83 55 -7 18 -32 78 -56 133 -24 56 -44 112 -44 126 0 29 -29
229 -35 238 -2 3 -9 44 -14 91 -12 93 -46 216 -66 238 -15 15 -10 -14 24 -159
11 -47 22 -119 26 -160 3 -41 11 -106 17 -145 15 -95 35 -354 28 -364 -10 -14
-224 3 -251 20 -16 11 -47 17 -92 17 -78 0 -121 21 -46 23 l44 1 -34 9 c-18 6
-36 8 -39 5 -11 -12 -31 31 -32 69 -1 31 -3 36 -10 20 -7 -19 -8 -19 -15 -2
-4 10 -5 20 -2 23 3 3 -8 27 -24 54 -16 26 -29 56 -29 66 0 10 -14 39 -30 63
-17 25 -29 49 -27 55 2 6 -3 16 -10 21 -12 9 -11 11 4 13 10 1 47 6 83 11 l65
10 -83 -4 c-98 -4 -119 1 -128 27 -8 25 4 37 39 40 15 1 27 8 27 15 0 16 -5
16 -31 1 -17 -10 -23 -10 -26 0 -3 6 -14 12 -25 12 -18 0 -20 -5 -16 -32 7
-47 1 -58 -35 -59 -18 0 -26 -3 -19 -6 6 -2 10 -9 6 -14 -3 -5 2 -9 10 -9 11
0 14 -7 11 -27 -3 -16 -7 -50 -9 -78 -11 -115 -19 -155 -37 -171 -11 -10 -18
-29 -18 -43 1 -20 2 -22 6 -7 3 11 10 25 17 31 9 9 12 -8 13 -75 l2 -87 -47
-7 c-55 -7 -162 -55 -162 -73 0 -15 24 -17 48 -4 9 4 47 11 84 14 l66 6 1
-112 c2 -201 13 -351 32 -429 10 -42 19 -92 19 -111 0 -31 -3 -34 -21 -30 -11
3 -36 24 -55 47 -71 86 -248 397 -301 531 -6 17 -20 53 -31 80 -75 187 -120
332 -146 470 -8 44 -22 120 -31 168 -10 54 -17 151 -18 248 -1 87 -5 159 -9
159 -10 0 -22 -118 -20 -202 1 -42 8 -122 16 -177 11 -76 11 -120 4 -183 -33
-269 6 -782 86 -1158 8 -36 22 -105 31 -155 29 -156 55 -275 84 -387 16 -59
25 -110 21 -113 -7 -4 -48 72 -88 165 -11 25 -29 65 -40 90 -11 25 -37 86 -57
135 -19 50 -40 99 -45 110 -57 128 -121 414 -135 608 -6 80 -20 117 -43 117
-7 0 -6 -116 2 -215 5 -55 22 -139 46 -225 6 -19 12 -57 14 -85 2 -27 7 -84
10 -125 3 -41 2 -64 -2 -51 -4 14 -13 26 -20 29 -14 4 -16 -12 -3 -37 6 -10 6
-23 0 -32 -5 -7 -9 -12 -9 -9 -1 3 -3 19 -5 35 -6 49 -14 102 -21 141 -5 27
-4 35 5 30 6 -4 11 -1 11 9 0 9 -4 14 -9 11 -10 -7 -22 43 -20 88 l1 31 8 -30
c7 -28 8 -28 9 -5 0 14 -4 32 -9 40 -19 29 -30 -11 -27 -101 1 -64 5 -85 15
-82 7 3 12 -3 12 -16 0 -12 -4 -21 -10 -21 -5 0 -10 -11 -10 -25 0 -18 -5 -25
-18 -25 -20 0 -42 38 -42 71 0 16 -5 19 -19 14 -11 -3 -22 -2 -25 4 -3 5 -20
6 -38 2 -45 -10 -58 -4 -58 27 0 20 -3 23 -12 14 -12 -12 -12 -63 1 -127 8
-39 8 -39 18 -15 6 14 7 27 2 28 -5 2 -9 13 -9 24 0 13 6 18 17 16 12 -2 20
-17 25 -47 10 -61 32 -73 36 -21 3 32 7 40 23 40 16 0 19 -7 19 -45 0 -39 -3
-45 -21 -45 -11 0 -17 -5 -14 -10 4 -6 10 -8 15 -5 4 3 14 -2 21 -11 11 -14
10 -19 -9 -35 -19 -15 -21 -22 -13 -38 14 -25 14 -61 0 -61 -5 0 -7 -5 -4 -10
4 -6 16 -10 28 -8 25 4 37 -30 15 -43 -9 -7 -10 -11 -2 -16 7 -5 14 -17 17
-28 2 -11 5 8 6 43 1 56 -1 62 -19 62 -11 0 -20 7 -20 15 0 18 12 19 28 3 9
-9 12 -6 12 15 0 17 -5 27 -15 27 -25 0 -17 15 14 27 17 6 35 7 42 2 23 -14
36 -10 43 13 4 18 8 20 17 11 9 -9 9 -16 -1 -28 -7 -8 -10 -18 -6 -22 3 -3 6
-1 6 5 0 7 5 12 10 12 6 0 10 -19 10 -42 -1 -41 -1 -42 -16 -23 -15 19 -16 18
-9 -12 4 -21 3 -33 -4 -33 -6 0 -11 9 -11 21 0 15 -4 19 -16 15 -9 -3 -24 -6
-35 -6 -23 0 -25 -17 -2 -22 20 -4 25 -58 6 -58 -17 0 -16 -8 3 -27 13 -13 19
-14 40 -3 13 8 20 16 15 20 -6 3 -6 11 0 20 8 13 11 13 23 -2 7 -10 22 -18 32
-17 11 0 13 3 7 6 -9 3 -13 30 -13 84 0 46 -4 79 -10 79 -5 0 -10 18 -10 40 0
72 18 42 26 -41 4 -44 10 -75 14 -69 8 12 17 -21 26 -95 3 -22 8 -47 11 -55 7
-16 6 -15 24 -110 6 -36 15 -67 19 -70 4 -3 23 -50 43 -105 19 -55 49 -140 67
-188 17 -49 30 -91 28 -93 -13 -12 -222 158 -332 271 -28 27 -59 57 -71 65
-39 28 -194 199 -232 256 -21 32 -55 83 -76 113 -81 120 -138 252 -213 496
-13 44 -28 94 -33 110 -19 60 -51 304 -57 441 -12 243 27 822 71 1059 14 72
39 172 81 325 18 63 65 183 100 252 26 51 29 68 14 68 -24 0 -139 -269 -169
-395 -5 -22 -21 -80 -35 -130 -14 -49 -32 -132 -41 -184 -11 -62 -29 -121 -54
-175 -64 -134 -81 -175 -81 -191 0 -9 -9 -33 -19 -53 -33 -64 -55 -122 -114
-302 -17 -52 -35 -96 -39 -98 -4 -2 -8 -16 -8 -31 l0 -27 -77 1 c-43 1 -131 2
-197 3 l-118 2 7 138 c3 75 13 196 21 267 8 72 19 173 25 225 15 141 45 325
70 415 29 113 33 135 20 135 -5 0 -15 -9 -21 -21 -21 -38 -68 -247 -79 -346
-22 -204 -46 -330 -65 -353 -28 -31 -206 -461 -206 -496 0 -9 -28 -28 -67 -46
-81 -37 -193 -106 -193 -118 0 -19 19 -19 41 -1 34 26 158 91 175 91 18 0 17
-4 0 -39 -17 -31 -125 -385 -193 -626 -24 -88 -46 -166 -49 -173 -5 -16 -47
-32 -85 -32 l-29 0 1 168 c2 685 27 884 177 1412 8 30 19 59 24 64 12 14 10
26 -5 26 -6 0 -18 -15 -25 -32 -8 -18 -20 -49 -28 -68 -30 -74 -124 -391 -124
-419 0 -16 -9 -75 -21 -132 -29 -144 -28 -138 -35 -294 -4 -77 -11 -141 -15
-143 -5 -2 -9 -13 -10 -25 0 -12 -3 -16 -6 -9 -10 25 -20 11 -19 -27 1 -39 16
-48 16 -10 0 11 4 18 8 15 6 -4 8 -423 2 -531 l-2 -30 -8 35 c-10 41 -12 144
-4 213 4 30 2 53 -5 60 -8 8 -11 -3 -11 -43 0 -29 -3 -50 -7 -47 -4 4 -6 30
-4 57 1 30 -2 50 -9 50 -10 0 -13 -71 -11 -285 1 -90 -1 -116 -9 -105 -9 12
-10 11 -6 -5 11 -38 16 -291 6 -275 -8 13 -10 12 -10 -4 0 -18 -1 -18 -18 -3
-15 14 -65 145 -74 192 -6 33 -38 100 -47 98 -6 -2 -11 4 -11 13 0 8 5 12 11
8 13 -7 11 1 -29 178 -14 64 -30 114 -34 112 -5 -3 -7 14 -5 38 1 24 0 59 -4
78 -6 31 -7 29 -9 -20 -1 -30 -2 -77 -2 -105 0 -28 -2 -38 -5 -22 -2 15 -9 27
-14 27 -5 0 -9 18 -9 40 0 22 4 40 10 40 6 0 5 10 -2 25 -6 14 -17 25 -25 25
-17 0 -17 -26 0 -34 10 -5 10 -7 0 -12 -15 -7 -18 -81 -4 -86 14 -5 25 -78 12
-78 -6 0 -11 8 -11 17 0 13 -3 14 -12 5 -10 -10 -7 -16 10 -28 26 -18 27 -32
8 -71 -8 -15 -17 -36 -20 -45 -7 -25 -24 -22 -29 5 -3 12 -4 5 -4 -15 1 -21
-2 -40 -6 -44 -4 -4 -7 21 -7 56 0 72 -11 73 -21 2 -6 -45 -6 -44 -8 22 -1 57
1 67 14 62 10 -4 15 1 15 14 0 11 -4 20 -10 20 -6 0 -10 33 -11 78 -1 127 -17
52 -19 -93 -1 -71 -4 -150 -6 -175 -8 -101 -2 -363 11 -485 18 -168 52 -385
65 -419 13 -34 13 -46 0 -46 -16 0 -86 113 -142 230 -28 58 -73 148 -99 200
-26 53 -58 123 -70 155 -12 33 -25 65 -29 70 -17 23 -29 110 -35 253 -4 83
-11 152 -15 152 -20 0 -25 -99 -30 -574 0 -22 -2 -37 -4 -35 -8 8 -87 276 -96
326 -5 26 -18 95 -28 153 -63 338 -68 797 -12 1125 18 102 71 308 92 353 24
54 19 73 -10 41 -48 -51 -120 -362 -160 -690 -7 -51 -21 -101 -44 -151 -68
-144 -156 -473 -159 -591 -1 -43 -15 -78 -23 -57 -26 68 -23 599 4 780 34 228
125 540 202 690 15 30 28 59 28 65 0 16 208 396 242 440 16 22 60 81 96 130
240 323 544 667 717 810 53 44 140 116 193 160 53 44 117 96 142 115 25 19 54
43 65 54 35 32 237 180 305 223 188 117 392 191 528 192 56 1 72 -4 168 -54z
m-1360 -256 c7 -19 13 -54 13 -79 0 -42 -3 -48 -45 -80 -100 -77 -267 -270
-396 -460 -58 -86 -158 -274 -158 -299 0 -26 -43 -103 -91 -162 -105 -129
-235 -317 -281 -405 -15 -28 -53 -96 -86 -150 -33 -54 -62 -109 -66 -122 -12
-38 -76 -172 -82 -172 -23 0 78 476 116 547 11 21 20 43 20 50 0 14 79 227
114 305 33 74 118 206 123 191 2 -6 -5 -31 -17 -55 -47 -95 -83 -240 -78 -315
4 -70 21 -59 34 22 26 162 79 303 193 510 48 87 81 134 81 116 0 -6 -16 -51
-35 -99 -76 -185 -122 -346 -103 -358 14 -9 17 -2 38 77 10 41 30 106 45 144
15 39 36 95 47 125 11 30 28 73 38 95 10 22 30 67 44 99 23 51 62 109 109 158
7 7 45 51 86 96 98 110 287 265 315 258 5 -1 15 -18 22 -37z m68 -174 c18 -14
41 -25 52 -25 10 0 26 -4 34 -10 12 -7 11 -12 -5 -30 -11 -12 -42 -37 -70 -55
-64 -43 -194 -154 -265 -226 -94 -97 -251 -268 -298 -325 -37 -45 -62 -66 -62
-51 0 4 52 104 77 147 92 162 240 354 376 488 62 61 117 112 121 112 4 0 22
-11 40 -25z m4940 -1308 c25 -75 46 -146 46 -157 0 -10 8 -57 19 -102 21 -91
33 -208 22 -208 -4 0 -20 39 -35 88 -15 48 -43 114 -61 147 -28 51 -33 74 -39
155 -4 52 -9 127 -12 165 -9 98 5 78 60 -88z m101 -73 c37 -55 213 -207 279
-241 76 -39 261 -53 385 -29 51 10 95 16 97 13 3 -3 -4 -94 -16 -203 -21 -186
-22 -232 -17 -793 2 -348 9 -633 16 -686 6 -49 20 -173 32 -275 11 -102 25
-203 29 -226 5 -22 25 -153 45 -290 20 -137 38 -256 40 -264 14 -50 47 -328
60 -502 8 -111 17 -212 20 -223 6 -20 -18 -60 -134 -225 -108 -154 -289 -370
-309 -370 -11 0 -13 26 -7 143 5 130 -15 428 -39 567 -4 19 -11 67 -17 105
-12 72 -23 104 -43 117 -7 5 -5 8 5 8 14 0 16 6 9 34 -4 18 -10 38 -13 42 -2
5 -8 36 -12 69 -8 77 -26 158 -59 268 -14 48 -26 99 -26 114 0 15 -4 40 -10
57 -5 17 -13 51 -17 75 -6 32 -13 45 -26 47 -22 3 -36 14 -19 14 7 0 12 10 13
23 1 21 1 21 9 -3 8 -24 8 -23 9 8 1 17 -3 32 -9 32 -11 0 -18 38 -25 142 -7
98 -18 129 -25 73 l-6 -40 -4 46 c-4 37 -2 45 9 41 11 -4 12 7 6 64 -4 38 -13
84 -21 103 -16 38 -18 65 -5 57 16 -10 19 18 4 36 -11 13 -12 21 -3 37 6 12 8
26 5 31 -8 12 -19 235 -29 600 -10 312 -39 485 -145 842 -12 43 -16 70 -10 74
25 15 -36 433 -76 527 -14 33 19 8 50 -39z m-3835 -265 c-14 -150 -13 -740 1
-812 5 -29 16 -94 24 -144 13 -91 21 -121 92 -353 89 -287 221 -487 524 -791
150 -150 253 -236 367 -308 54 -34 89 -36 79 -3 -10 34 -67 187 -77 207 -35
70 -181 653 -179 720 0 34 -7 49 62 -130 17 -44 42 -102 57 -130 14 -27 35
-72 45 -100 27 -71 80 -170 132 -242 42 -59 74 -84 58 -45 -23 53 -157 604
-180 737 -9 50 -20 109 -25 132 -12 52 -34 241 -56 478 -20 219 -23 500 -6
517 9 9 12 8 12 -8 0 -11 22 -89 50 -174 27 -85 50 -159 50 -163 0 -5 12 -34
26 -65 14 -31 33 -73 41 -92 32 -73 125 -256 155 -304 33 -54 109 -173 140
-218 28 -42 24 -58 -18 -58 -24 0 -34 -4 -31 -12 2 -9 19 -12 49 -10 43 3 47
1 87 -44 23 -26 40 -52 38 -58 -2 -6 -41 -14 -87 -18 -45 -4 -87 -11 -92 -16
-5 -5 -5 -26 0 -48 l8 -39 82 -3 c82 -3 82 -3 82 -30 0 -15 -7 -54 -15 -87
-17 -71 -19 -279 -5 -477 10 -134 27 -204 78 -318 49 -111 158 -181 289 -188
117 -6 236 42 316 127 51 54 95 137 80 151 -4 5 -28 10 -53 12 -38 3 -48 8
-68 38 l-23 35 32 28 c25 23 38 28 62 23 17 -3 38 -13 47 -21 23 -21 26 -20
43 23 19 47 25 134 32 421 3 123 7 226 9 230 6 8 135 -7 196 -24 l45 -12 16
-119 c9 -65 26 -174 38 -241 l21 -123 -53 -107 c-56 -113 -58 -116 -157 -283
-104 -174 -145 -231 -237 -330 -45 -47 -57 -78 -25 -65 9 4 35 13 57 21 23 8
65 35 93 60 83 72 80 44 -6 -71 -25 -33 -55 -69 -65 -79 -13 -13 -16 -21 -9
-24 14 -4 259 114 315 152 37 25 67 34 67 19 0 -10 -76 -320 -97 -398 -9 -33
-24 -69 -33 -80 -10 -11 -38 -51 -63 -90 -62 -93 -142 -176 -282 -290 -99 -81
-172 -123 -445 -257 -151 -74 -240 -109 -485 -190 -329 -109 -463 -148 -514
-148 -60 0 -429 99 -541 145 -19 8 -98 39 -175 69 -254 98 -662 303 -843 424
-133 88 -188 169 -298 434 -39 94 -90 295 -78 307 2 3 20 -3 39 -12 76 -36 81
-20 29 103 -20 47 -40 99 -46 115 -5 17 -16 44 -23 60 -7 17 -30 86 -49 155
-20 69 -39 133 -42 143 -10 33 15 16 41 -28 25 -42 87 -105 104 -105 19 0 18
16 -4 66 -13 30 -29 78 -34 107 -6 28 -19 95 -30 147 -11 52 -23 130 -27 175
-5 71 -3 87 19 145 15 36 30 90 36 120 18 106 20 107 103 114 40 3 100 7 133
8 l60 3 -2 -30 c-20 -271 -10 -424 42 -632 38 -152 68 -212 141 -289 89 -92
197 -127 324 -104 52 9 78 22 132 61 69 52 135 138 124 164 -3 10 -19 15 -45
15 -33 0 -43 5 -61 30 -25 35 -16 61 28 84 31 15 48 12 80 -17 16 -15 25 -18
33 -10 18 18 23 501 6 600 -9 56 -10 86 -3 93 5 5 33 10 62 10 l52 0 4 78 c2
42 3 78 2 80 -1 2 -104 6 -228 9 -125 3 -228 9 -230 12 -6 9 79 452 113 591
33 135 68 249 82 266 6 7 30 7 78 1 70 -10 113 -4 95 12 -5 5 -38 19 -74 31
-36 12 -68 25 -72 29 -12 11 139 454 207 605 14 32 28 56 31 53 3 -2 0 -60 -6
-128z m-2494 69 c-17 -61 -28 -141 -30 -220 -1 -48 -5 -90 -9 -94 -4 -4 -7
-17 -8 -28 0 -14 -4 -10 -12 14 -10 29 -10 37 2 46 8 6 11 18 8 28 -5 13 -15
15 -47 11 -25 -3 -40 -1 -40 6 0 6 -10 9 -22 7 -13 -2 -23 -10 -23 -18 0 -9 9
-15 23 -14 12 0 22 -5 22 -12 0 -6 7 -14 15 -18 18 -7 20 -47 3 -64 -10 -10
-10 -15 1 -21 10 -7 11 -13 2 -27 -10 -18 -10 -17 -11 4 0 13 -4 21 -9 17 -5
-3 -12 -1 -16 5 -3 5 -1 10 4 10 6 0 11 5 11 10 0 6 -9 10 -20 10 -11 0 -20 5
-20 11 0 7 10 9 25 7 14 -3 25 -4 25 -2 0 1 3 10 7 19 5 14 2 16 -18 11 -13
-3 -18 -3 -11 0 21 10 2 24 -34 24 -29 0 -34 4 -34 23 -1 20 -2 20 -11 4 -6
-10 -11 -43 -11 -73 0 -37 -5 -54 -13 -54 -8 0 -15 6 -18 13 -2 6 -7 9 -11 5
-4 -3 -3 -16 4 -27 15 -29 -6 -28 -32 1 -17 20 -18 23 -3 34 23 17 18 98 -5
84 -13 -9 -13 -11 0 -20 10 -6 11 -10 3 -10 -7 0 -13 -7 -13 -15 0 -8 -7 -15
-16 -15 -12 0 -15 -6 -10 -26 4 -15 2 -32 -5 -40 -6 -7 -9 -20 -6 -27 3 -8 1
-20 -4 -28 -10 -15 -13 25 -12 146 1 66 0 68 -9 30 -14 -54 -17 -539 -5 -697
10 -127 17 -144 45 -116 8 8 15 8 26 -1 8 -7 21 -9 27 -5 8 4 9 3 5 -5 -4 -6
-16 -9 -27 -6 -19 6 -23 -1 -19 -38 1 -13 -4 -18 -17 -15 -10 2 -17 11 -17 21
1 9 -2 14 -7 11 -12 -7 -12 -37 0 -49 13 -14 32 -254 32 -410 1 -146 -18 -381
-32 -408 -6 -9 -8 -21 -6 -25 2 -4 1 -38 -4 -77 -4 -38 -10 -97 -13 -130 -4
-33 -11 -109 -17 -170 -6 -60 -14 -156 -17 -212 -4 -56 -10 -105 -14 -108 -34
-35 -63 106 -50 240 5 44 6 105 3 135 l-6 55 -21 -85 c-12 -47 -30 -105 -41
-130 -33 -74 -63 -155 -63 -167 0 -11 -25 -97 -70 -238 -10 -33 -22 -76 -25
-95 -4 -19 -19 -78 -35 -130 -45 -153 -60 -226 -79 -393 -10 -87 -21 -161 -25
-164 -11 -11 -35 31 -36 62 0 45 39 485 44 493 2 4 9 70 16 147 6 77 22 237
35 355 13 118 31 307 40 420 8 113 20 264 26 335 14 174 27 562 28 820 0 116
4 370 7 567 l7 356 166 0 c120 0 178 4 211 15 25 8 61 18 80 22 49 9 100 28
100 36 0 4 12 10 27 14 14 3 42 19 62 36 43 35 56 37 47 7z m1807 -315 c-2
-76 -6 -166 -9 -200 l-6 -63 -51 -15 c-88 -24 -105 -27 -111 -17 -3 6 8 43 25
84 17 40 51 125 75 188 60 154 62 160 71 160 5 0 7 -62 6 -137z m2270 35 c19
-40 60 -133 92 -207 53 -122 57 -135 42 -146 -22 -16 -209 -27 -218 -13 -4 6
-5 27 -3 47 28 288 40 391 45 391 4 0 23 -33 42 -72z m-2295 -370 c5 -7 13
-60 16 -118 13 -209 38 -428 67 -590 16 -90 25 -167 21 -171 -4 -4 -126 -9
-272 -11 l-265 -3 3 25 c10 79 54 241 131 485 96 302 115 356 129 368 13 10
53 17 143 26 9 0 21 -5 27 -11z m368 -9 c27 -12 30 -17 23 -38 -11 -27 -53
-199 -80 -326 -11 -49 -24 -101 -29 -115 -5 -14 -17 -74 -25 -135 -9 -60 -21
-143 -27 -182 l-12 -73 -33 0 c-26 0 -34 5 -38 23 -47 217 -76 423 -96 693 -9
130 -9 158 2 166 21 14 278 3 315 -13z m2094 -42 c18 -14 48 -75 85 -172 15
-38 40 -97 55 -131 16 -33 43 -107 60 -165 17 -57 50 -159 72 -227 22 -67 38
-126 36 -132 -3 -11 -462 -20 -479 -10 -10 7 -29 65 -29 91 0 12 12 18 41 22
22 3 43 8 46 10 13 14 -12 27 -52 27 -38 0 -45 3 -49 23 -27 128 -55 629 -36
651 14 17 46 22 155 24 50 1 86 -3 95 -11z m448 -229 c-4 -206 -9 -265 -32
-388 -14 -80 -30 -158 -34 -174 -18 -65 -31 -41 -87 158 -14 48 -45 147 -70
220 -25 72 -52 156 -61 186 -8 30 -18 57 -22 60 -11 8 -42 79 -42 95 0 8 -4
15 -8 15 -5 0 -14 11 -20 25 l-12 25 80 0 c43 0 82 5 85 10 4 6 54 10 117 10
l110 0 -4 -242z m93 220 c19 -16 41 -74 72 -198 14 -52 34 -122 45 -155 39
-118 142 -491 142 -514 0 -11 -12 -12 -52 -7 -29 3 -114 13 -188 21 -74 9
-140 17 -146 20 -8 2 -7 18 3 57 8 29 21 91 29 138 8 47 19 108 25 135 5 28
12 149 15 270 3 121 7 226 9 233 3 6 10 12 18 12 7 0 20 -6 28 -12z m-3010
-1028 c27 -15 59 -83 59 -125 0 -39 -21 -87 -53 -122 -17 -20 -31 -23 -88 -23
-87 0 -93 8 -93 114 1 98 12 121 67 146 48 21 80 24 108 10z m2434 -15 c56
-55 18 -187 -61 -214 -37 -13 -44 -12 -80 5 -36 18 -39 22 -42 66 -3 47 20
110 56 151 24 27 97 23 127 -8z m-5575 -107 c0 -8 3 -9 8 -3 8 11 21 11 152 0
52 -5 124 -9 160 -10 89 -3 92 -3 84 -16 -4 -7 -23 -9 -48 -7 -65 7 -297 -30
-303 -49 -5 -15 75 -28 123 -20 25 4 34 2 34 -8 0 -8 -5 -17 -11 -21 -24 -14
18 -25 96 -23 44 1 124 1 178 0 l97 -1 0 -27 c0 -16 -4 -33 -8 -39 -5 -8 -76
-14 -212 -18 -113 -4 -226 -10 -251 -15 -43 -7 -118 -6 -126 2 -7 8 11 267 19
267 4 0 8 -6 8 -12z m343 -288 c186 0 217 -2 217 -15 0 -13 -39 -15 -293 -15
-162 0 -296 3 -300 6 -3 3 -4 11 -1 17 3 8 31 11 82 10 42 -1 175 -2 295 -3z
m5574 -82 c18 -21 19 -31 13 -93 -19 -169 -71 -235 -186 -235 -111 0 -179 97
-189 270 -2 26 21 70 36 70 4 0 11 -17 14 -37 11 -65 29 -105 58 -135 35 -35
76 -37 137 -5 49 24 68 63 69 145 1 48 16 54 48 20z m1623 -38 c7 -16 16 -55
21 -87 13 -91 21 -127 29 -138 5 -6 18 -51 30 -100 22 -93 112 -387 135 -440
7 -16 23 -55 35 -85 19 -47 78 -170 109 -227 6 -10 17 -36 26 -58 9 -22 25
-59 35 -81 10 -23 16 -45 13 -48 -4 -3 -46 -6 -95 -6 -80 0 -90 2 -106 23 -28
36 -131 134 -168 159 -18 13 -36 30 -40 38 -8 20 -23 124 -34 230 -10 107 -27
232 -46 336 -8 45 -12 88 -9 97 4 8 1 18 -4 22 -6 3 -9 10 -6 15 3 5 1 11 -5
15 -5 3 -10 17 -10 30 0 13 -16 52 -37 86 -41 72 -49 116 -27 168 29 70 39 78
92 79 46 2 51 -1 62 -28z m-3998 3 c37 -33 15 -170 -37 -230 -27 -32 -36 -35
-96 -40 -83 -7 -136 17 -163 74 -11 21 -23 46 -28 56 -5 9 -11 37 -14 60 -5
33 -2 47 11 60 21 22 55 22 55 1 0 -27 36 -78 70 -97 56 -33 108 -4 126 69 15
65 39 80 76 47z m-1640 -95 c7 -97 50 -221 136 -388 83 -160 101 -187 174
-261 36 -36 38 -41 43 -121 6 -84 16 -180 37 -341 8 -65 8 -97 0 -125 -61
-198 -143 -561 -172 -754 -10 -67 -9 -81 5 -109 10 -18 26 -58 36 -90 l19 -59
-26 -42 c-74 -121 -91 -137 -101 -98 -3 11 -9 20 -14 20 -5 0 -9 5 -9 10 0 53
-106 181 -202 243 -29 19 -66 46 -83 61 -48 42 -115 72 -185 84 -82 14 -140 7
-209 -24 -29 -13 -62 -24 -72 -24 -10 0 -21 -4 -24 -10 -9 -15 -55 -12 -55 4
0 133 59 406 110 512 28 59 30 69 28 176 -1 142 13 179 103 263 34 33 72 69
84 80 13 12 26 44 33 80 56 287 76 380 93 445 21 77 73 240 88 275 5 11 19 45
31 75 11 30 26 66 33 80 16 35 77 120 86 120 5 0 11 -37 13 -82z m5254 25 c-3
-10 -10 -47 -16 -83 -15 -87 -46 -199 -72 -257 -22 -51 -93 -153 -114 -166 -7
-4 -19 -13 -26 -20 -43 -41 -120 -99 -124 -94 -8 8 16 258 27 278 5 10 22 27
39 39 35 25 192 205 239 273 32 47 57 63 47 30z m68 -33 c15 -5 26 -17 26 -27
0 -28 -58 -192 -80 -228 -23 -37 -25 -55 -7 -55 27 0 119 122 146 193 6 15 14
27 19 27 4 0 22 -30 40 -67 32 -69 41 -108 67 -288 8 -55 17 -118 20 -140 3
-22 10 -62 15 -90 5 -27 14 -93 20 -145 17 -153 21 -160 122 -237 121 -91 132
-112 125 -217 -3 -46 -13 -101 -22 -124 -25 -62 -22 -109 12 -187 34 -81 78
-282 94 -438 6 -60 9 -109 7 -111 -1 -1 -22 -18 -46 -39 -23 -20 -45 -37 -50
-37 -4 0 -13 13 -20 29 -34 78 -91 106 -181 89 -48 -9 -76 -9 -127 1 -52 11
-78 11 -127 2 -137 -27 -217 -55 -266 -92 -13 -11 -27 -19 -31 -19 -4 0 -10
24 -12 54 -3 39 -13 67 -34 97 -54 77 -81 124 -88 154 -27 110 -53 359 -76
725 -6 85 -12 166 -14 180 -3 14 1 57 9 95 7 39 19 108 25 155 l11 85 91 75
c49 41 107 94 128 117 76 81 137 241 165 431 4 23 8 42 10 42 2 0 15 -4 29
-10z m-5224 -97 c19 -36 81 -131 136 -209 l102 -144 7 -81 c4 -44 4 -83 0 -87
-4 -4 -18 7 -31 23 -42 51 -160 257 -187 325 -35 88 -77 214 -77 228 0 27 17
8 50 -55z m4775 -365 c-9 -148 -33 -341 -70 -578 -14 -85 -30 -186 -36 -225
-29 -186 -86 -451 -126 -580 -94 -306 -160 -495 -215 -617 -26 -60 -48 -110
-48 -113 0 -14 -84 -172 -126 -236 -62 -96 -126 -181 -131 -175 -3 2 28 100
68 218 40 117 76 229 80 248 4 19 17 69 29 110 12 41 35 140 51 220 16 80 41
169 56 199 46 99 90 207 98 239 9 45 -11 41 -32 -5 -69 -161 -162 -333 -213
-398 -42 -53 -221 -235 -231 -235 -8 0 41 108 77 170 16 27 56 110 97 200 30
68 81 209 143 400 25 80 57 170 69 200 13 30 26 67 29 83 4 15 11 27 16 27 6
0 10 6 10 14 0 7 9 25 20 39 20 26 28 73 10 62 -5 -3 -10 -15 -10 -25 0 -10
-5 -22 -11 -25 -13 -9 -3 63 11 80 5 7 8 14 5 16 -7 8 15 80 24 75 4 -3 7 19
8 47 1 29 8 72 17 97 9 25 16 53 16 63 0 14 5 16 25 11 22 -5 25 -3 25 20 0
14 -4 26 -10 26 -13 0 -13 29 0 67 9 25 15 29 35 25 14 -2 25 -9 25 -15 0 -14
-20 -77 -31 -99 -5 -10 -9 -28 -9 -40 0 -13 -4 -18 -8 -13 -4 6 -14 10 -22 10
-17 0 -16 -56 2 -113 8 -28 7 -35 -9 -47 -10 -8 -21 -15 -25 -15 -11 0 -10
-48 1 -54 16 -10 61 79 56 113 -2 18 0 29 6 26 5 -4 12 2 16 12 3 10 17 43 31
73 14 30 25 62 25 70 0 8 4 18 10 21 11 8 19 27 86 228 27 80 47 150 44 158
-6 17 14 43 34 43 12 0 14 -16 8 -102z m-4172 -309 c1 -31 5 -55 10 -52 4 2 7
-13 7 -34 1 -21 7 -49 15 -63 8 -14 14 -37 15 -51 0 -37 28 -120 67 -204 8
-16 40 -118 73 -225 32 -107 77 -247 100 -310 23 -63 49 -137 57 -165 8 -27
19 -59 24 -70 4 -11 24 -60 44 -110 20 -49 67 -152 105 -228 38 -75 66 -137
61 -137 -13 0 -152 168 -202 245 -67 102 -156 257 -206 359 -32 64 -47 86 -55
78 -8 -8 -5 -27 10 -69 12 -32 29 -101 37 -153 34 -213 64 -333 146 -583 27
-82 49 -155 49 -162 0 -7 20 -72 44 -144 24 -72 38 -126 31 -121 -24 20 -154
195 -196 265 -46 75 -126 234 -140 275 -9 28 -56 141 -86 210 -12 25 -35 92
-53 150 -17 58 -36 116 -41 130 -5 14 -20 68 -33 120 -14 52 -40 156 -59 230
-64 247 -85 384 -118 742 -10 112 -10 140 0 152 12 14 17 10 43 -31 29 -45
118 -162 145 -191 11 -11 13 -9 13 12 0 16 -6 26 -14 26 -8 0 -17 11 -20 25
-4 14 -14 25 -23 25 -13 0 -14 3 -6 11 9 9 16 8 28 -5 9 -9 20 -16 24 -16 4 0
8 37 9 81 1 45 4 84 8 88 3 3 5 -11 2 -32 -2 -23 0 -36 6 -34 6 2 11 15 11 30
1 40 15 45 16 6 l1 -34 10 38 10 38 14 -27 c8 -15 16 -53 17 -85z m5397 -469
c4 -8 12 -24 17 -36 25 -47 42 -190 48 -393 4 -118 9 -220 12 -227 4 -12 -185
-189 -194 -181 -2 3 -8 47 -13 98 -20 195 -64 375 -109 442 -23 36 -24 42 -13
80 21 73 42 161 48 200 l5 38 96 -3 c73 -2 98 -7 103 -18z m-2130 -344 c0 -30
-43 -150 -80 -226 -41 -84 -156 -268 -206 -330 -24 -30 -63 -79 -85 -108 -97
-127 -435 -361 -601 -416 -162 -54 -449 -47 -631 14 -102 35 -260 108 -322
150 -281 189 -443 360 -525 560 -13 30 -34 70 -48 88 l-24 34 17 91 c10 51 20
95 22 100 11 18 46 -20 79 -86 80 -159 162 -265 269 -347 277 -211 504 -289
920 -315 254 -15 496 55 686 201 152 116 337 369 355 486 7 41 23 55 120 107
49 27 54 26 54 -3z m-200 -93 c0 -30 -58 -143 -112 -217 -84 -115 -188 -225
-265 -277 -75 -52 -225 -118 -328 -145 -87 -23 -119 -27 -245 -26 -241 1 -481
46 -653 122 -159 71 -320 180 -413 281 -69 76 -176 250 -162 264 3 4 37 -9 74
-28 104 -52 302 -132 534 -216 47 -17 159 -49 250 -72 251 -63 254 -62 709 90
261 88 397 139 480 181 64 32 119 59 124 59 4 1 7 -7 7 -16z m-4059 -329 c27
-8 73 -34 102 -57 28 -23 75 -57 104 -75 151 -96 255 -304 254 -509 0 -119
-12 -136 -166 -249 -144 -106 -306 -166 -364 -135 -30 16 -26 36 12 60 72 45
214 276 267 435 20 61 2 54 -26 -10 -97 -224 -179 -352 -268 -420 -36 -27 -54
-34 -91 -34 -42 0 -47 3 -61 33 -26 54 -5 124 91 310 77 150 126 268 124 299
0 8 -3 8 -6 -2 -20 -56 -157 -337 -206 -424 -48 -83 -108 -111 -141 -64 -19
26 -21 122 -5 183 19 73 35 175 28 175 -4 0 -10 -21 -13 -47 -4 -27 -11 -61
-16 -78 -4 -16 -11 -42 -14 -57 -11 -50 -71 -29 -103 37 -6 11 -14 67 -18 124
-5 78 -14 125 -36 184 -16 43 -29 85 -29 92 0 40 197 195 247 195 13 0 42 9
63 20 82 42 163 46 271 14z m5829 -119 c36 -4 84 -2 106 3 52 12 92 -4 123
-47 81 -113 90 -476 14 -506 -21 -7 -27 0 -42 55 -30 109 -64 216 -72 224 -19
21 -17 -5 6 -75 35 -107 89 -373 81 -404 -15 -59 -92 -54 -138 9 -24 31 -76
135 -143 281 -61 135 -82 169 -109 179 -14 6 -28 7 -31 4 -11 -11 59 -210 100
-283 12 -22 52 -89 89 -150 51 -84 66 -119 66 -148 0 -60 -14 -77 -62 -77 -40
0 -47 5 -168 128 -116 116 -129 132 -149 192 -12 36 -35 88 -51 115 -16 28
-39 69 -50 93 -12 23 -27 42 -32 42 -5 0 -8 -4 -6 -8 7 -17 100 -208 114 -234
8 -14 14 -31 14 -37 0 -21 42 -74 128 -162 48 -49 82 -92 78 -98 -28 -45 -270
67 -408 188 -45 40 -47 45 -72 149 -42 177 -41 183 71 344 75 108 131 153 247
195 52 19 185 43 211 38 11 -2 49 -7 85 -10z m-1360 -243 c0 -11 9 -45 20 -78
21 -61 20 -90 -6 -149 -7 -16 -32 -93 -55 -170 -45 -154 -77 -251 -90 -276 -9
-17 -98 -41 -214 -58 -38 -6 -119 -19 -180 -30 -60 -11 -112 -17 -115 -15 -2
3 13 19 35 37 47 38 105 100 171 182 26 33 53 65 58 71 6 6 26 30 44 55 18 24
62 82 97 129 73 97 172 242 197 288 19 35 38 42 38 14z m370 -264 c0 -149 -15
-249 -38 -263 -9 -5 -51 -22 -92 -36 -41 -14 -82 -29 -90 -32 -22 -10 -144
-47 -153 -47 -7 0 3 16 91 139 18 25 51 79 74 119 22 40 50 79 62 87 11 8 46
46 76 84 30 39 58 70 63 70 4 1 7 -54 7 -121z m-4262 -51 c32 -29 29 -76 -5
-109 -32 -30 -95 -51 -137 -46 l-28 3 40 41 c32 32 42 51 47 90 4 27 9 52 12
57 5 9 41 -9 71 -36z m1119 -110 c112 -71 177 -104 278 -143 161 -61 191 -77
250 -131 28 -25 74 -63 103 -85 29 -23 51 -43 48 -45 -7 -7 -330 19 -348 28
-9 5 -32 9 -50 9 -55 0 -372 60 -423 80 -28 10 -91 163 -79 189 15 30 109 160
116 161 3 0 51 -28 105 -63z"/>
<path d="M4495 2849 c-7 -10 0 -146 11 -219 17 -116 67 -273 110 -346 61 -104
169 -194 233 -194 46 0 40 27 -8 40 -37 10 -81 52 -81 78 0 6 -9 27 -19 49
-18 35 -29 63 -32 81 0 4 -10 30 -21 57 -11 28 -24 66 -28 85 -4 19 -18 67
-30 105 -12 39 -31 102 -42 140 -11 39 -26 77 -33 85 -6 8 -15 23 -18 33 -7
19 -32 23 -42 6z"/>
<path d="M10584 2902 c-6 -4 -14 -24 -17 -45 -3 -21 -13 -52 -21 -69 -9 -17
-16 -39 -16 -48 0 -9 -13 -55 -29 -103 -48 -140 -141 -322 -205 -398 -72 -85
-71 -146 1 -93 41 30 228 218 278 279 17 20 37 44 45 53 28 32 61 95 56 108
-3 7 2 18 10 24 8 7 14 22 14 33 0 24 -22 100 -31 107 -3 3 -12 23 -19 45 -18
57 -54 115 -66 107z"/>
<path d="M8325 1990 c-38 -10 -123 -25 -188 -35 l-119 -17 -55 -52 c-31 -29
-54 -58 -52 -64 3 -8 23 5 53 32 57 53 51 51 191 71 147 21 242 44 249 61 8
22 -5 22 -79 4z"/>
<path d="M6862 1988 c7 -21 143 -54 365 -89 57 -8 86 -20 143 -56 39 -25 74
-43 77 -40 12 13 -8 36 -65 74 -51 34 -74 42 -159 56 -167 27 -273 47 -299 57
-35 14 -66 12 -62 -2z"/>
</g>
</svg>
